<?xml version="1.0" encoding="UTF-8" standalone="no"?>
<svg
   xmlns:dc="http://purl.org/dc/elements/1.1/"
   xmlns:cc="http://creativecommons.org/ns#"
   xmlns:rdf="http://www.w3.org/1999/02/22-rdf-syntax-ns#"
   xmlns:svg="http://www.w3.org/2000/svg"
   xmlns="http://www.w3.org/2000/svg"
   xmlns:sodipodi="http://sodipodi.sourceforge.net/DTD/sodipodi-0.dtd"
   xmlns:inkscape="http://www.inkscape.org/namespaces/inkscape"
   width="259.34589"
   height="259.34381"
   viewBox="0 0 68.618599 68.61805"
   version="1.1"
   id="svg8"
   inkscape:version="1.0 (d6d20de3af, 2020-06-22)"
   sodipodi:docname="logo.svg">
  <defs
     id="defs2" />
  <sodipodi:namedview
     inkscape:snap-page="true"
     id="base"
     pagecolor="#ffffff"
     bordercolor="#666666"
     borderopacity="1.0"
     inkscape:pageopacity="0.0"
     inkscape:pageshadow="2"
     inkscape:zoom="1.4"
     inkscape:cx="167.76538"
     inkscape:cy="354.30555"
     inkscape:document-units="mm"
     inkscape:current-layer="layer1"
     showgrid="false"
     inkscape:window-width="1920"
     inkscape:window-height="1016"
     inkscape:window-x="0"
     inkscape:window-y="1107"
     inkscape:window-maximized="1"
     units="px"
     inkscape:document-rotation="0" />
  <metadata
     id="metadata5">
    <rdf:RDF>
      <cc:Work
         rdf:about="">
        <dc:format>image/svg+xml</dc:format>
        <dc:type
           rdf:resource="http://purl.org/dc/dcmitype/StillImage" />
        <dc:title />
      </cc:Work>
    </rdf:RDF>
  </metadata>
  <g
     inkscape:label="Layer 1"
     inkscape:groupmode="layer"
     id="layer1"
     transform="translate(-73.934859,-186.68309)">
    <rect
       y="265.27859"
       x="85.66172"
       height="77.726685"
       width="80.918175"
       id="rect2861"
       style="fill:#000000;fill-opacity:1;stroke-width:2.92801;stroke-linecap:square;paint-order:stroke fill markers" />
    <ellipse
       inkscape:export-ydpi="189.52448"
       inkscape:export-xdpi="189.52448"
       ry="34.309017"
       rx="34.309277"
       cy="220.99211"
       cx="191.22934"
       id="path2835"
       style="fill:#ffffff;fill-opacity:1;stroke-width:12.3069;stroke-linecap:square;paint-order:stroke fill markers" />
    <path
       inkscape:export-ydpi="189.52448"
       inkscape:export-xdpi="189.52448"
       id="path2234"
       style="fill:#ef525b;fill-opacity:1;stroke:none;stroke-width:47.4399;stroke-linecap:square;stroke-opacity:1;paint-order:stroke fill markers"
       d="M 129.67188 0 A 129.67294 129.67191 0 0 0 0 129.67188 A 129.67294 129.67191 0 0 0 129.67188 259.34375 A 129.67294 129.67191 0 0 0 259.3457 129.67188 A 129.67294 129.67191 0 0 0 129.67188 0 z M 129.45508 17.044922 A 112.6283 112.6274 0 0 1 129.67188 17.044922 A 112.6283 112.6274 0 0 1 242.30078 129.67188 A 112.6283 112.6274 0 0 1 129.67188 242.29883 A 112.6283 112.6274 0 0 1 17.044922 129.67188 A 112.6283 112.6274 0 0 1 129.45508 17.044922 z "
       transform="matrix(0.26458333,0,0,0.26458333,73.934859,186.68309)" />
    <path
       inkscape:export-ydpi="47.38113"
       inkscape:export-xdpi="47.38113"
       d="m 28.149707,182.33243 a 34.309193,34.309193 0 0 0 -34.3090015,34.30902 34.309193,34.309193 0 0 0 34.3090015,34.30903 34.309193,34.309193 0 0 0 34.3096,-34.30903 34.309193,34.309193 0 0 0 -34.3096,-34.30902 z m 18.8004,21.25763 1.2341,3.93308 c -1.3111,0.46273 -3.2778,0.69453 -5.8999,0.69453 1.2596,0.56555 2.1853,1.27249 2.7765,2.1208 0.617,0.82264 0.925,1.8637 0.925,3.12333 0,1.33675 -0.3341,2.51931 -1.0025,3.54758 -0.6427,1.02828 -1.5934,1.83806 -2.853,2.42933 -1.234,0.59123 -2.6864,0.88675 -4.3574,0.88675 -0.9254,0 -1.7352,-0.10285 -2.4293,-0.30851 -0.5655,0.38561 -0.8485,0.88683 -0.8485,1.50379 0,0.95115 0.8228,1.42679 2.4681,1.42679 h 3.1233 c 1.491,0 2.7889,0.24434 3.8943,0.73277 1.1312,0.48844 2.0051,1.18229 2.6221,2.08205 0.617,0.87403 0.9255,1.86391 0.9255,2.96932 0,2.05655 -0.874,3.65051 -2.6221,4.78163 -1.748,1.15681 -4.2672,1.73529 -7.5576,1.73529 -2.3651,0 -4.229,-0.24434 -5.5914,-0.73279 -1.3368,-0.48842 -2.288,-1.19533 -2.8536,-2.12079 -0.5656,-0.92546 -0.848,-2.10799 -0.848,-3.54759 h 4.4343 c 0,0.7198 0.1285,1.28524 0.3855,1.69654 0.2828,0.41132 0.7715,0.71988 1.4656,0.92554 0.7198,0.20563 1.7478,0.3085 3.0845,0.3085 1.8767,0 3.2007,-0.2313 3.9719,-0.69403 0.7712,-0.4627 1.1565,-1.13099 1.1565,-2.00504 0,-0.7712 -0.2955,-1.37578 -0.8867,-1.81279 -0.5913,-0.41132 -1.4523,-0.61651 -2.5833,-0.61651 h -3.0851 c -1.9281,0 -3.3805,-0.37277 -4.3574,-1.11828 -0.9769,-0.74549 -1.465,-1.68424 -1.465,-2.81533 0,-0.7198 0.2057,-1.41367 0.617,-2.08206 0.437,-0.66836 1.028,-1.2338 1.7735,-1.69653 -1.2339,-0.64268 -2.1465,-1.42685 -2.7378,-2.35231 -0.5655,-0.95115 -0.848,-2.08253 -0.848,-3.3936 0,-1.46528 0.3597,-2.75015 1.0795,-3.85556 0.7198,-1.1054 1.7097,-1.95381 2.9693,-2.54508 1.2854,-0.61695 2.7504,-0.92551 4.3956,-0.92551 2.1594,0.0514 3.8949,-0.10313 5.2059,-0.46302 1.3368,-0.3856 2.7762,-0.98967 4.3186,-1.81229 z m -29.965601,2.27531 c 5.218601,0 7.828001,2.3395 7.828001,7.01818 v 8.5602 c 0,0.79689 0.1154,1.38792 0.3467,1.77352 0.2571,0.35992 0.6554,0.64289 1.1953,0.84852 l -1.0408,3.27785 c -1.1568,-0.10282 -2.108,-0.38579 -2.8535,-0.84852 -0.7198,-0.46273 -1.2727,-1.16965 -1.6583,-2.1208 -0.6941,1.02828 -1.568101,1.79941 -2.622101,2.31355 -1.0283,0.48844 -2.1852,0.73276 -3.4706,0.73276 -2.0308,0 -3.6373,-0.57846 -4.8198005,-1.7353 -1.1826,-1.15681 -1.7741,-2.67348 -1.7741,-4.55009 0,-2.2108 0.7972,-3.89456 2.3911005,-5.05137 1.6195,-1.18253 3.9204,-1.77406 6.9024,-1.77406 h 2.544501 v -1.15652 c 0,-1.31106 -0.308001,-2.22366 -0.925001,-2.73783 -0.5912,-0.53983 -1.5555,-0.80975 -2.8923,-0.80975 -1.491,0 -3.2901,0.35972 -5.3981,1.07952 l -1.1571005,-3.35484 c 2.5450005,-0.97686 5.0130005,-1.46502 7.4037005,-1.46502 z m 20.518101,3.35484 c -1.1054,0 -1.9793,0.35973 -2.622,1.07952 -0.617,0.69409 -0.9255,1.6323 -0.9255,2.8148 0,1.23394 0.3216,2.21078 0.9643,2.93058 0.6426,0.7198 1.5297,1.08003 2.6608,1.08003 1.1825,0 2.0821,-0.34719 2.699,-1.04127 0.617,-0.7198 0.9255,-1.72223 0.9255,-3.00757 0,-2.57069 -1.2342,-3.85609 -3.7021,-3.85609 z m -19.592501,7.98192 c -3.1877,0 -4.7817,1.18256 -4.7817,3.54759 0,0.97687 0.2444,1.73495 0.7328,2.27481 0.4884,0.53985 1.2079,0.80975 2.159,0.80975 1.671,0 2.982,-0.83534 3.933101,-2.50629 v -4.12586 z"
       style="opacity:1;fill:#ef525b;fill-opacity:1;stroke:none;stroke-width:0.264583;stroke-miterlimit:4;stroke-dasharray:none;stroke-dashoffset:0;stroke-opacity:1"
       id="path1551" />
    <ellipse
       inkscape:export-ydpi="189.52448"
       inkscape:export-xdpi="189.52448"
       ry="34.309025"
       rx="34.309299"
       cy="220.99211"
       cx="108.24413"
       id="ellipse2250"
       style="fill:#ffffff;fill-opacity:0;stroke-width:12.5518;stroke-linecap:square;paint-order:stroke fill markers" />
    <path
       inkscape:export-ydpi="189.52448"
       inkscape:export-xdpi="189.52448"
       id="path2228"
       style="font-style:normal;font-variant:normal;font-weight:500;font-stretch:normal;font-size:38.8056px;line-height:1.25;font-family:'Fira Sans';-inkscape-font-specification:'Fira Sans Medium';letter-spacing:0px;word-spacing:0px;stroke-width:2.95052;fill:#ef525b;fill-opacity:1"
       d="m 128.42445,211.78291 q -1.97909,0.6985 -5.93726,0.6985 1.90147,0.85373 2.794,2.13431 0.93134,1.24178 0.93134,3.14325 0,2.0179 -1.00895,3.57012 -0.97014,1.55222 -2.87161,2.44475 -1.86267,0.89253 -4.38503,0.89253 -1.39701,0 -2.44476,-0.31044 -0.85372,0.58208 -0.85372,1.51342 0,1.4358 2.48356,1.4358 h 3.14325 q 2.25073,0 3.91937,0.73731 1.70744,0.73731 2.63878,2.0955 0.93133,1.31939 0.93133,2.98803 0,3.10445 -2.63878,4.8119 -2.63878,1.74625 -7.6059,1.74625 -3.57011,0 -5.62681,-0.73731 -2.01789,-0.7373 -2.87161,-2.13431 -0.85373,-1.397 -0.85373,-3.57011 h 4.46265 q 0,1.08656 0.38805,1.70745 0.42687,0.62088 1.47462,0.93133 1.08655,0.31044 3.10444,0.31044 2.83281,0 3.99698,-0.6985 1.16417,-0.6985 1.16417,-2.01789 0,-1.16417 -0.89253,-1.82386 -0.89253,-0.62089 -2.59997,-0.62089 h -3.10445 q -2.91042,0 -4.38504,-1.12536 -1.47461,-1.12536 -1.47461,-2.83281 0,-1.08656 0.62089,-2.0955 0.6597,-1.00895 1.78506,-1.70745 -1.86267,-0.97014 -2.7552,-2.36714 -0.85372,-1.43581 -0.85372,-3.41489 0,-2.21192 1.08656,-3.88056 1.08655,-1.66864 2.98803,-2.56117 1.94028,-0.93134 4.42383,-0.93134 3.25968,0.0776 5.23876,-0.46567 2.01789,-0.58208 4.34623,-1.82386 z m -10.74915,1.70745 q -1.66864,0 -2.63878,1.08656 -0.93134,1.04775 -0.93134,2.8328 0,1.86267 0.97014,2.94923 0.97014,1.08656 2.67759,1.08656 1.78505,0 2.71639,-1.04775 0.93133,-1.08656 0.93133,-3.02684 0,-3.88056 -3.72533,-3.88056 z m -12.77129,12.30137 q 0,1.20298 0.34925,1.78506 0.38806,0.54328 1.20297,0.85372 l -1.04775,3.29848 q -1.74625,-0.15522 -2.87161,-0.85372 -1.08656,-0.6985 -1.66864,-2.13431 -1.047754,1.55222 -2.638784,2.32834 -1.552224,0.7373 -3.492504,0.7373 -3.065642,0 -4.8507,-1.74625 -1.785057,-1.74625 -1.785057,-4.57906 0,-3.33728 2.405947,-5.08353 2.444752,-1.78506 6.946202,-1.78506 h 2.561166 v -1.16417 q 0,-1.97909 -0.931331,-2.7552 -0.892529,-0.81492 -2.91042,-0.81492 -2.250725,0 -5.432784,1.08656 l -1.164168,-3.37609 q 3.841755,-1.47461 7.450675,-1.47461 7.877538,0 7.877538,7.06262 z m -8.847678,2.40595 q 2.522364,0 3.958168,-2.52236 v -4.1522 h -2.056693 q -4.811895,0 -4.811895,3.57011 0,1.47462 0.737307,2.28953 0.737306,0.81492 2.173113,0.81492 z" />
    <path
       d="m 191.22908,186.68309 a 34.309298,34.309026 0 0 0 -34.30902,34.30902 34.309298,34.309026 0 0 0 34.30902,34.30901 34.309298,34.309026 0 0 0 34.30953,-34.30901 34.309298,34.309026 0 0 0 -34.30953,-34.30902 z m -0.0574,4.5098 a 29.799571,29.799333 0 0 1 0.0574,0 29.799571,29.799333 0 0 1 29.79972,29.79922 29.799571,29.799333 0 0 1 -29.79972,29.79921 29.799571,29.799333 0 0 1 -29.79922,-29.79921 29.799571,29.799333 0 0 1 29.74185,-29.79922 z"
       style="fill:#ef525b;fill-opacity:1;stroke:none;stroke-width:12.5518;stroke-linecap:square;stroke-opacity:1;paint-order:stroke fill markers"
       id="path2829"
       inkscape:export-xdpi="189.52448"
       inkscape:export-ydpi="189.52448" />
    <ellipse
       style="fill:#ffffff;fill-opacity:0;stroke-width:12.5518;stroke-linecap:square;paint-order:stroke fill markers"
       id="ellipse2831"
       cx="191.22932"
       cy="220.99211"
       rx="34.309299"
       ry="34.309025"
       inkscape:export-xdpi="189.52448"
       inkscape:export-ydpi="189.52448" />
    <path
       d="m 211.40965,211.78291 q -1.97909,0.6985 -5.93726,0.6985 1.90147,0.85373 2.794,2.13431 0.93134,1.24178 0.93134,3.14325 0,2.0179 -1.00895,3.57012 -0.97014,1.55222 -2.87161,2.44475 -1.86267,0.89253 -4.38503,0.89253 -1.39701,0 -2.44476,-0.31044 -0.85372,0.58208 -0.85372,1.51342 0,1.4358 2.48356,1.4358 h 3.14325 q 2.25073,0 3.91937,0.73731 1.70744,0.73731 2.63878,2.0955 0.93133,1.31939 0.93133,2.98803 0,3.10445 -2.63878,4.8119 -2.63878,1.74625 -7.6059,1.74625 -3.57011,0 -5.62681,-0.73731 -2.01789,-0.7373 -2.87161,-2.13431 -0.85373,-1.397 -0.85373,-3.57011 h 4.46265 q 0,1.08656 0.38805,1.70745 0.42687,0.62088 1.47462,0.93133 1.08655,0.31044 3.10444,0.31044 2.83281,0 3.99698,-0.6985 1.16417,-0.6985 1.16417,-2.01789 0,-1.16417 -0.89253,-1.82386 -0.89253,-0.62089 -2.59997,-0.62089 h -3.10445 q -2.91042,0 -4.38504,-1.12536 -1.47461,-1.12536 -1.47461,-2.83281 0,-1.08656 0.62089,-2.0955 0.6597,-1.00895 1.78506,-1.70745 -1.86267,-0.97014 -2.7552,-2.36714 -0.85372,-1.43581 -0.85372,-3.41489 0,-2.21192 1.08656,-3.88056 1.08655,-1.66864 2.98803,-2.56117 1.94028,-0.93134 4.42383,-0.93134 3.25968,0.0776 5.23876,-0.46567 2.01789,-0.58208 4.34623,-1.82386 z m -10.74915,1.70745 q -1.66864,0 -2.63878,1.08656 -0.93134,1.04775 -0.93134,2.8328 0,1.86267 0.97014,2.94923 0.97014,1.08656 2.67759,1.08656 1.78505,0 2.71639,-1.04775 0.93133,-1.08656 0.93133,-3.02684 0,-3.88056 -3.72533,-3.88056 z m -12.77129,12.30137 q 0,1.20298 0.34925,1.78506 0.38806,0.54328 1.20297,0.85372 l -1.04775,3.29848 q -1.74625,-0.15522 -2.87161,-0.85372 -1.08656,-0.6985 -1.66864,-2.13431 -1.04776,1.55222 -2.63879,2.32834 -1.55222,0.7373 -3.4925,0.7373 -3.06564,0 -4.8507,-1.74625 -1.78506,-1.74625 -1.78506,-4.57906 0,-3.33728 2.40595,-5.08353 2.44475,-1.78506 6.9462,-1.78506 h 2.56117 v -1.16417 q 0,-1.97909 -0.93133,-2.7552 -0.89253,-0.81492 -2.91042,-0.81492 -2.25073,0 -5.43279,1.08656 l -1.16416,-3.37609 q 3.84175,-1.47461 7.45067,-1.47461 7.87754,0 7.87754,7.06262 z m -8.84768,2.40595 q 2.52236,0 3.95817,-2.52236 v -4.1522 h -2.05669 q -4.8119,0 -4.8119,3.57011 0,1.47462 0.73731,2.28953 0.7373,0.81492 2.17311,0.81492 z"
       style="font-style:normal;font-variant:normal;font-weight:500;font-stretch:normal;font-size:38.8056px;line-height:1.25;font-family:'Fira Sans';-inkscape-font-specification:'Fira Sans Medium';letter-spacing:0px;word-spacing:0px;fill:#ef525b;fill-opacity:1;stroke-width:2.95052"
       id="path2833"
       inkscape:export-xdpi="189.52448"
       inkscape:export-ydpi="189.52448" />
    <ellipse
       style="fill:#ef525b;fill-opacity:1;stroke-width:8.53478;stroke-linecap:square;paint-order:stroke fill markers"
       id="ellipse2851"
       cx="192.29803"
       cy="300.58334"
       rx="23.793356"
       ry="23.793175"
       inkscape:export-xdpi="273.28842"
       inkscape:export-ydpi="273.28842" />
    <path
       inkscape:export-ydpi="273.28842"
       inkscape:export-xdpi="273.28842"
       id="path2853"
       style="font-style:normal;font-variant:normal;font-weight:500;font-stretch:normal;font-size:38.8056px;line-height:1.25;font-family:'Fira Sans';-inkscape-font-specification:'Fira Sans Medium';letter-spacing:0px;word-spacing:0px;fill:#ffffff;fill-opacity:1;stroke-width:2.95052"
       d="m 211.40965,290.3321 q -1.97909,0.6985 -5.93726,0.6985 1.90147,0.85373 2.794,2.13431 0.93134,1.24178 0.93134,3.14325 0,2.0179 -1.00895,3.57012 -0.97014,1.55222 -2.87161,2.44475 -1.86267,0.89253 -4.38503,0.89253 -1.39701,0 -2.44476,-0.31044 -0.85372,0.58208 -0.85372,1.51342 0,1.4358 2.48356,1.4358 h 3.14325 q 2.25073,0 3.91937,0.73731 1.70744,0.73731 2.63878,2.0955 0.93133,1.31939 0.93133,2.98803 0,3.10445 -2.63878,4.8119 -2.63878,1.74625 -7.6059,1.74625 -3.57011,0 -5.62681,-0.73731 -2.01789,-0.7373 -2.87161,-2.13431 -0.85373,-1.397 -0.85373,-3.57011 h 4.46265 q 0,1.08656 0.38805,1.70745 0.42687,0.62088 1.47462,0.93133 1.08655,0.31044 3.10444,0.31044 2.83281,0 3.99698,-0.6985 1.16417,-0.6985 1.16417,-2.01789 0,-1.16417 -0.89253,-1.82386 -0.89253,-0.62089 -2.59997,-0.62089 h -3.10445 q -2.91042,0 -4.38504,-1.12536 -1.47461,-1.12536 -1.47461,-2.83281 0,-1.08656 0.62089,-2.0955 0.6597,-1.00895 1.78506,-1.70745 -1.86267,-0.97014 -2.7552,-2.36714 -0.85372,-1.43581 -0.85372,-3.41489 0,-2.21192 1.08656,-3.88056 1.08655,-1.66864 2.98803,-2.56117 1.94028,-0.93134 4.42383,-0.93134 3.25968,0.0776 5.23876,-0.46567 2.01789,-0.58208 4.34623,-1.82386 z m -10.74915,1.70745 q -1.66864,0 -2.63878,1.08656 -0.93134,1.04775 -0.93134,2.8328 0,1.86267 0.97014,2.94923 0.97014,1.08656 2.67759,1.08656 1.78505,0 2.71639,-1.04775 0.93133,-1.08656 0.93133,-3.02684 0,-3.88056 -3.72533,-3.88056 z m -12.77129,12.30137 q 0,1.20298 0.34925,1.78506 0.38806,0.54328 1.20297,0.85372 l -1.04775,3.29848 q -1.74625,-0.15522 -2.87161,-0.85372 -1.08656,-0.6985 -1.66864,-2.13431 -1.04776,1.55222 -2.63879,2.32834 -1.55222,0.7373 -3.4925,0.7373 -3.06564,0 -4.8507,-1.74625 -1.78506,-1.74625 -1.78506,-4.57906 0,-3.33728 2.40595,-5.08353 2.44475,-1.78506 6.9462,-1.78506 h 2.56117 v -1.16417 q 0,-1.97909 -0.93133,-2.7552 -0.89253,-0.81492 -2.91042,-0.81492 -2.25073,0 -5.43279,1.08656 l -1.16416,-3.37609 q 3.84175,-1.47461 7.45067,-1.47461 7.87754,0 7.87754,7.06262 z m -8.84768,2.40595 q 2.52236,0 3.95817,-2.52236 v -4.1522 h -2.05669 q -4.8119,0 -4.8119,3.57011 0,1.47462 0.73731,2.28953 0.7373,0.81492 2.17311,0.81492 z" />
    <path
       inkscape:export-ydpi="273.28842"
       inkscape:export-xdpi="273.28842"
       transform="matrix(0.26458333,0,0,0.26458333,73.934859,186.68309)"
       d="M 210.99805 340.5625 A 89.927645 89.926961 0 0 0 121.18359 430.48828 A 89.927645 89.926961 0 0 0 211.11133 520.41602 A 89.927645 89.926961 0 0 0 301.03906 430.48828 A 89.927645 89.926961 0 0 0 211.11133 340.5625 A 89.927645 89.926961 0 0 0 210.99805 340.5625 z M 278.65039 376.78516 L 283.34375 391.74414 C 278.35707 393.50414 270.87764 394.38477 260.9043 394.38477 C 265.6954 396.5359 269.21595 399.22451 271.46484 402.45117 C 273.81153 405.58007 274.98438 409.53897 274.98438 414.33008 C 274.98438 419.41455 273.71216 423.91311 271.16992 427.82422 C 268.72547 431.73532 265.10751 434.81556 260.31641 437.06445 C 255.62306 439.31335 250.09969 440.4375 243.74414 440.4375 C 240.22412 440.4375 237.14391 440.04588 234.50391 439.26367 C 232.3528 440.73033 231.27734 442.63769 231.27734 444.98438 C 231.27734 448.60214 234.40627 450.41016 240.66406 450.41016 L 252.54297 450.41016 C 258.2141 450.41016 263.15297 451.33948 267.35742 453.19727 C 271.65963 455.05505 274.98339 457.69498 277.33008 461.11719 C 279.67674 464.44163 280.84961 468.20571 280.84961 472.41016 C 280.84961 480.23239 277.52585 486.29542 270.87695 490.59766 C 264.22806 494.99766 254.64644 497.19727 242.13086 497.19727 C 233.13531 497.19727 226.04552 496.26795 220.86328 494.41016 C 215.77883 492.55239 212.16087 489.86378 210.00977 486.34375 C 207.85863 482.82375 206.7832 478.32712 206.7832 472.85156 L 223.65039 472.85156 C 223.65039 475.58935 224.13942 477.74024 225.11719 479.30469 C 226.19277 480.86911 228.05141 482.04198 230.69141 482.82422 C 233.42917 483.60643 237.33938 483.99805 242.42383 483.99805 C 249.56162 483.99805 254.59791 483.11742 257.53125 481.35742 C 260.46459 479.59742 261.92969 477.05492 261.92969 473.73047 C 261.92969 470.79713 260.80554 468.5001 258.55664 466.83789 C 256.30775 465.27344 253.03268 464.49023 248.73047 464.49023 L 236.99805 464.49023 C 229.66471 464.49023 224.13941 463.07383 220.42383 460.23828 C 216.70828 457.40273 214.84961 453.83349 214.84961 449.53125 C 214.84961 446.79346 215.63282 444.15354 217.19727 441.61133 C 218.8595 439.06909 221.10781 436.9182 223.94336 435.1582 C 219.25002 432.71376 215.78014 429.73094 213.53125 426.21094 C 211.38014 422.59315 210.30469 418.29135 210.30469 413.30469 C 210.30469 407.73135 211.67237 402.84117 214.41016 398.63672 C 217.14792 394.43227 220.91199 391.20593 225.70312 388.95703 C 230.59202 386.61035 236.16606 385.4375 242.42383 385.4375 C 250.6372 385.63303 257.23795 385.0466 262.22461 383.67773 C 267.30906 382.21108 272.78371 379.91405 278.65039 376.78516 z M 164.67383 385.4375 C 184.52275 385.4375 194.44727 394.33528 194.44727 412.13086 L 194.44727 444.69141 C 194.44727 447.72254 194.88758 449.97084 195.76758 451.4375 C 196.74537 452.80639 198.26114 453.88185 200.31445 454.66406 L 196.35352 467.13086 C 191.95352 466.73975 188.33751 465.6643 185.50195 463.9043 C 182.76416 462.1443 180.66197 459.45568 179.19531 455.83789 C 176.55529 459.749 173.2296 462.68309 169.2207 464.63867 C 165.3096 466.49644 160.91038 467.42383 156.02148 467.42383 C 148.29704 467.42383 142.18529 465.22422 137.6875 460.82422 C 133.18971 456.42422 130.94141 450.65537 130.94141 443.51758 C 130.94141 435.10868 133.97292 428.70469 140.03516 424.30469 C 146.19516 419.8069 154.94487 417.55859 166.28711 417.55859 L 175.9668 417.55859 L 175.9668 413.1582 C 175.9668 408.17152 174.79392 404.69969 172.44727 402.74414 C 170.19837 400.6908 166.53171 399.66406 161.44727 399.66406 C 155.77613 399.66406 148.93185 401.0337 140.91406 403.77148 L 136.51367 391.01172 C 146.19367 387.29617 155.58049 385.4375 164.67383 385.4375 z M 242.7168 398.19727 C 238.51235 398.19727 235.18859 399.5669 232.74414 402.30469 C 230.39746 404.94469 229.22461 408.51395 229.22461 413.01172 C 229.22461 417.70506 230.44618 421.42041 232.89062 424.1582 C 235.33507 426.89599 238.70753 428.26367 243.00977 428.26367 C 247.50753 428.26367 250.93066 426.94469 253.27734 424.30469 C 255.624 421.5669 256.79688 417.75413 256.79688 412.86523 C 256.79688 403.08745 252.10346 398.19727 242.7168 398.19727 z M 168.19531 428.55859 C 156.07084 428.55859 150.00781 433.05523 150.00781 442.05078 C 150.00781 445.76636 150.93713 448.65176 152.79492 450.70508 C 154.65269 452.75842 157.39002 453.78516 161.00781 453.78516 C 167.36337 453.78516 172.34901 450.60751 175.9668 444.25195 L 175.9668 428.55859 L 168.19531 428.55859 z "
       style="fill:#fffbfb;fill-opacity:1;stroke-width:32.2574;stroke-linecap:square;paint-order:stroke fill markers"
       id="ellipse2855" />
  </g>
</svg>
