<?xml version="1.0" encoding="UTF-8" standalone="no"?>
<svg
   xmlns:dc="http://purl.org/dc/elements/1.1/"
   xmlns:cc="http://creativecommons.org/ns#"
   xmlns:rdf="http://www.w3.org/1999/02/22-rdf-syntax-ns#"
   xmlns:svg="http://www.w3.org/2000/svg"
   xmlns="http://www.w3.org/2000/svg"
   xmlns:sodipodi="http://sodipodi.sourceforge.net/DTD/sodipodi-0.dtd"
   xmlns:inkscape="http://www.inkscape.org/namespaces/inkscape"
   width="241.64897"
   height="268.76846"
   viewBox="0 0 63.93629 71.111656"
   version="1.1"
   id="svg8"
   inkscape:version="1.0 (947b245b96, 2020-05-01)"
   sodipodi:docname="shield.svg">
  <defs
     id="defs2">
    <inkscape:path-effect
       bendpath-nodetypes="cc"
       hide_knot="false"
       vertical="false"
       scale_y_rel="false"
       prop_scale="1"
       bendpath="m 160.5729,130.66931 c 15.17544,-1.0857 29.66831,-0.82569 43.48134,0"
       lpeversion="1"
       is_visible="true"
       id="path-effect1046"
       effect="bend_path" />
    <inkscape:path-effect
       effect="bend_path"
       id="path-effect954"
       is_visible="true"
       lpeversion="1"
       bendpath="m 160.5729,130.66931 c 15.17544,-1.0857 29.66831,-0.82569 43.48134,0"
       prop_scale="1"
       scale_y_rel="false"
       vertical="false"
       hide_knot="false"
       bendpath-nodetypes="cc" />
    <filter
       inkscape:collect="always"
       style="color-interpolation-filters:sRGB"
       id="filter1088"
       x="-0.00012467176"
       width="1.0002493"
       y="-0.0010826362"
       height="1.0021653">
      <feGaussianBlur
         inkscape:collect="always"
         stdDeviation="0.0022696684"
         id="feGaussianBlur1090" />
    </filter>
    <filter
       inkscape:collect="always"
       style="color-interpolation-filters:sRGB"
       id="filter1092"
       x="-0.0001048138"
       width="1.0002096"
       y="-9.4258192e-05"
       height="1.0001885">
      <feGaussianBlur
         inkscape:collect="always"
         stdDeviation="0.0027347208"
         id="feGaussianBlur1094" />
    </filter>
    <filter
       inkscape:collect="always"
       style="color-interpolation-filters:sRGB"
       id="filter1096"
       x="-0.00010481448"
       width="1.0002096"
       y="-0.00021537396"
       height="1.0004307">
      <feGaussianBlur
         inkscape:collect="always"
         stdDeviation="0.0027347208"
         id="feGaussianBlur1098" />
    </filter>
    <filter
       inkscape:collect="always"
       style="color-interpolation-filters:sRGB"
       id="filter1100"
       x="-0.0001048138"
       width="1.0002096"
       y="-9.4258192e-05"
       height="1.0001885">
      <feGaussianBlur
         inkscape:collect="always"
         stdDeviation="0.0027347208"
         id="feGaussianBlur1102" />
    </filter>
    <filter
       inkscape:collect="always"
       style="color-interpolation-filters:sRGB"
       id="filter1104"
       x="-0.00010265422"
       width="1.0002053"
       y="-9.2296119e-05"
       height="1.0001846">
      <feGaussianBlur
         inkscape:collect="always"
         stdDeviation="0.0027347208"
         id="feGaussianBlur1106" />
    </filter>
  </defs>
  <sodipodi:namedview
     id="base"
     pagecolor="#ffffff"
     bordercolor="#666666"
     borderopacity="1.0"
     inkscape:pageopacity="0.0"
     inkscape:pageshadow="2"
     inkscape:zoom="1.4"
     inkscape:cx="176.3086"
     inkscape:cy="4.6866056"
     inkscape:document-units="mm"
     inkscape:current-layer="layer1"
     showgrid="false"
     inkscape:window-width="1600"
     inkscape:window-height="836"
     inkscape:window-x="0"
     inkscape:window-y="27"
     inkscape:window-maximized="1"
     units="px"
     inkscape:document-rotation="0"
     inkscape:snap-bbox="false"
     inkscape:snap-bbox-edge-midpoints="true"
     inkscape:snap-smooth-nodes="false"
     inkscape:object-paths="true"
     fit-margin-top="0"
     fit-margin-left="0"
     fit-margin-right="0"
     fit-margin-bottom="0"
     inkscape:snap-nodes="true"
     inkscape:snap-page="true"
     inkscape:snap-others="true" />
  <metadata
     id="metadata5">
    <rdf:RDF>
      <cc:Work
         rdf:about="">
        <dc:format>image/svg+xml</dc:format>
        <dc:type
           rdf:resource="http://purl.org/dc/dcmitype/StillImage" />
        <dc:title />
      </cc:Work>
    </rdf:RDF>
  </metadata>
  <g
     inkscape:label="Layer 1"
     inkscape:groupmode="layer"
     id="layer1"
     transform="translate(-82.878735,-59.370146)">
    <rect
       style="fill:#ffffff;fill-opacity:1;stroke-width:1.32292;stroke-linecap:round;opacity:0.99799998;filter:url(#filter1104)"
       id="rect856"
       width="63.936287"
       height="71.111656"
       x="82.878738"
       y="59.370148"
       inkscape:export-xdpi="750"
       inkscape:export-ydpi="750" />
    <path
       id="path860"
       style="fill:#ffffff;fill-opacity:1;stroke:none;stroke-width:1.32292;stroke-linecap:round;stroke-opacity:1;opacity:0.99799998;filter:url(#filter1100)"
       inkscape:transform-center-y="11.36617"
       d="m 114.84663,60.03211 c -7.94049,0.310018 -17.783641,1.315099 -30.587281,4.30103 -4.49496,32.863804 12.76325,52.34929 30.587281,65.33037 17.82403,-12.98108 35.08275,-32.466566 30.5878,-65.33037 -12.80364,-2.985931 -22.64731,-3.991012 -30.5878,-4.30103 z"
       inkscape:export-xdpi="750"
       inkscape:export-ydpi="750" />
    <path
       id="path999"
       style="fill:#d62a2a;fill-opacity:1;stroke:none;stroke-width:1.32292;stroke-linecap:round;stroke-opacity:1;opacity:0.99799998;filter:url(#filter1096)"
       inkscape:transform-center-y="11.36617"
       d="m 114.84663,60.03211 c -7.94049,0.31002 -17.783631,1.315101 -30.587279,4.30103 -1.340731,9.802444 -0.74554,18.414193 1.222148,26.018569 0.01247,0.03975 0.03926,0.119232 0.05012,0.154511 17.597831,-1.12291 35.588631,-2.018879 58.630021,0 0.0129,-0.04476 0.0451,-0.142319 0.0605,-0.193786 1.9596,-7.594703 2.55074,-16.193807 1.21234,-25.979294 -12.80364,-2.985929 -22.64731,-3.99101 -30.5878,-4.30103 z"
       inkscape:export-xdpi="750"
       inkscape:export-ydpi="750" />
    <path
       sodipodi:nodetypes="cccscc"
       d="m 114.84663,60.03211 c -7.94049,0.310018 -17.783641,1.315099 -30.587281,4.30103 -4.49496,32.863804 12.76325,52.34929 30.587281,65.33037 13.753,-10.01619 27.16944,-23.90487 30.51574,-44.823808 0.99054,-6.192215 1.09871,-13.000435 0.0721,-20.506562 -12.80364,-2.985931 -22.64731,-3.991012 -30.5878,-4.30103 z"
       inkscape:transform-center-y="11.36617"
       style="opacity:0.998;fill:none;fill-opacity:1;stroke:#000000;stroke-width:1.323;stroke-linecap:round;stroke-miterlimit:4;stroke-dasharray:none;stroke-opacity:1;filter:url(#filter1092)"
       id="path1002"
       inkscape:export-xdpi="750"
       inkscape:export-ydpi="750" />
    <g
       transform="matrix(1.2048988,0,0,1.2048988,-104.73206,-70.189769)"
       inkscape:path-effect="#path-effect1046"
       style="font-style:normal;font-variant:normal;font-weight:normal;font-stretch:normal;font-size:4.25949px;line-height:1.25;font-family:Helvetica;-inkscape-font-specification:Helvetica;letter-spacing:0px;word-spacing:0px;fill:#ffffff;fill-opacity:1;stroke:none;stroke-width:0.219588;opacity:0.99799998;filter:url(#filter1088)"
       id="g1044"
       aria-label="Fictitious University"
       inkscape:export-xdpi="750"
       inkscape:export-ydpi="750">
      <path
         inkscape:original-d="m 160.92218,129.01874 -0.34928,-0.0554 v -0.26409 h 2.35124 l 0.0426,0.77097 h -0.34076 l -0.1576,-0.46854 -0.92005,-0.0469 v 1.20544 l 0.63466,-0.0128 0.0809,-0.37483 h 0.27261 v 1.08191 h -0.26835 l -0.0852,-0.38336 -0.63466,-0.017 v 1.11173 l 0.6517,0.0426 v 0.25556 h -1.60583 v -0.25556 l 0.32799,-0.0426 z"
         id="path1004"
         style="font-style:normal;font-variant:normal;font-weight:bold;font-stretch:normal;font-family:Merriweather;-inkscape-font-specification:'Merriweather Bold';stroke-width:0.219588;fill:#ffffff;fill-opacity:1"
         d="m 160.70552,129.00518 c -0.11826,-0.0102 -0.23653,-0.0203 -0.35483,-0.0303 l -0.0189,-0.26341 c 0.7882,-0.0566 1.57654,-0.10967 2.36499,-0.15927 0.0304,0.25555 0.0608,0.51111 0.0912,0.76667 -0.11394,0.007 -0.22788,0.0144 -0.34181,0.0217 -0.0627,-0.15247 -0.12547,-0.30492 -0.18834,-0.45734 -0.30916,0.004 -0.61837,0.009 -0.9276,0.0146 l 0.082,1.20259 c 0.21133,-0.0187 0.42268,-0.0371 0.63405,-0.0553 0,-3e-5 0.0564,-0.37927 0.0564,-0.37931 0.091,-0.006 0.18208,-0.0119 0.27313,-0.0177 l 0.0696,1.07957 c -0.0893,0.006 -0.17852,0.0115 -0.26777,0.0174 -0.0367,-0.12565 -0.0734,-0.25129 -0.11018,-0.37693 -0.21176,0.008 -0.42353,0.0168 -0.63529,0.0255 l 0.0756,1.1091 c 0.21711,-5.9e-4 0.4342,-9e-4 0.65127,-9.4e-4 l 0.0168,0.25499 c -0.53206,0.035 -1.06402,0.0716 -1.59587,0.10985 l -0.0183,-0.25491 c 0.10771,-0.022 0.21546,-0.0439 0.32322,-0.0657 -0.0598,-0.84692 -0.11954,-1.69385 -0.17931,-2.54077 z" />
      <path
         inkscape:original-d="m 163.76365,129.10818 q -0.15334,0 -0.24279,-0.0894 -0.0894,-0.0894 -0.0894,-0.23002 0,-0.16186 0.10223,-0.26834 0.10223,-0.10649 0.27261,-0.10649 0.17038,0 0.25983,0.0937 0.0894,0.0894 0.0894,0.22575 0,0.17038 -0.10223,0.27261 -0.10223,0.10222 -0.28539,0.10222 z m -0.22575,0.79227 -0.30242,-0.0809 v -0.28539 l 0.77948,-0.0937 h 0.009 l 0.11927,0.0852 v 2.04882 l 0.28539,0.0341 v 0.25556 h -1.1884 v -0.25556 l 0.29816,-0.0383 z"
         id="path1006"
         style="font-style:normal;font-variant:normal;font-weight:bold;font-stretch:normal;font-family:Merriweather;-inkscape-font-specification:'Merriweather Bold';stroke-width:0.219588;fill:#ffffff;fill-opacity:1"
         d="m 163.56576,128.90854 c -0.1027,0.006 -0.18578,-0.0187 -0.24932,-0.0745 -0.0635,-0.0558 -0.0982,-0.13053 -0.10386,-0.22409 -0.007,-0.10769 0.0222,-0.19906 0.0866,-0.27407 0.0643,-0.075 0.1537,-0.11596 0.26811,-0.12278 0.1144,-0.007 0.20348,0.0192 0.26718,0.0781 0.0635,0.056 0.0979,0.12933 0.10317,0.22006 0.007,0.11338 -0.0224,0.20608 -0.0868,0.27812 -0.0645,0.072 -0.15805,0.11169 -0.28071,0.11902 -0.001,7e-5 -0.003,1.5e-4 -0.004,2.2e-4 z m -0.1788,0.80437 c -0.1026,-0.0208 -0.20523,-0.0415 -0.30789,-0.0622 l -0.0176,-0.28481 c 0.25867,-0.0473 0.51743,-0.0942 0.7763,-0.14069 0.003,-1.8e-4 0.006,-3.5e-4 0.009,-5.3e-4 0.0416,0.026 0.0831,0.052 0.12465,0.078 l 0.1195,2.04502 c 0.0954,0.006 0.19073,0.0117 0.28608,0.0176 l 0.0146,0.2551 c -0.39397,0.0226 -0.78788,0.0461 -1.18174,0.0705 l -0.0158,-0.25504 c 0.0981,-0.0189 0.19626,-0.0377 0.29442,-0.0564 -0.0339,-0.5555 -0.0677,-1.11101 -0.10162,-1.66651 z" />
      <path
         inkscape:original-d="m 164.68224,130.69271 q 0,-0.36631 0.14482,-0.6517 0.14909,-0.28538 0.42169,-0.44298 0.27687,-0.16186 0.64319,-0.16186 0.17038,0 0.2939,0.0256 0.12353,0.0256 0.27687,0.0681 l 0.12352,0.0341 -0.0256,0.72837 h -0.37058 l -0.10649,-0.46854 q -0.0255,-0.11075 -0.25131,-0.11075 -0.23853,0 -0.37483,0.20872 -0.13205,0.20871 -0.13631,0.6517 0,0.46854 0.16186,0.71985 0.16187,0.24705 0.43021,0.24705 0.32372,0 0.59633,-0.17464 l 0.098,0.2215 q -0.11075,0.11926 -0.34076,0.22149 -0.22575,0.10223 -0.48984,0.10223 -0.54522,0 -0.82208,-0.3365 -0.27261,-0.3365 -0.27261,-0.88172 z"
         id="path1008"
         style="font-style:normal;font-variant:normal;font-weight:bold;font-stretch:normal;font-family:Merriweather;-inkscape-font-specification:'Merriweather Bold';stroke-width:0.219588;fill:#ffffff;fill-opacity:1"
         d="m 164.57789,130.43668 c -0.0138,-0.24379 0.0222,-0.46335 0.10829,-0.6587 0.0889,-0.19549 0.22163,-0.35072 0.39821,-0.46552 0.17927,-0.11778 0.39162,-0.18316 0.63673,-0.1959 0.114,-0.006 0.21278,-0.002 0.29628,0.0104 0.0835,0.0128 0.17729,0.0308 0.28127,0.054 0.0419,0.009 0.0838,0.0186 0.12562,0.0279 0.003,0.24287 0.007,0.48574 0.0104,0.7286 -0.1236,0.006 -0.24721,0.0123 -0.37081,0.0186 -0.0435,-0.15414 -0.087,-0.30826 -0.13055,-0.46238 -0.0208,-0.0728 -0.10671,-0.10542 -0.25766,-0.0975 -0.15945,0.008 -0.28105,0.0845 -0.36464,0.22825 -0.0808,0.14367 -0.11447,0.36296 -0.10136,0.65798 0.0169,0.31182 0.0837,0.54851 0.20022,0.70999 0.11637,0.15868 0.26351,0.23331 0.44168,0.22405 0.21495,-0.0112 0.40994,-0.0793 0.58531,-0.2046 0.0362,0.0721 0.0724,0.14422 0.10862,0.21634 -0.0696,0.083 -0.17903,0.16236 -0.32818,0.23814 -0.14633,0.0756 -0.30696,0.11802 -0.48208,0.12721 -0.3615,0.019 -0.64002,-0.078 -0.83624,-0.29181 -0.19333,-0.21387 -0.30063,-0.50216 -0.32111,-0.86498 1e-5,-1e-5 2e-5,-2e-5 2e-5,-2e-5 z" />
      <path
         inkscape:original-d="m 167.66615,131.90241 q -0.26835,0 -0.39614,-0.12353 -0.12778,-0.12352 -0.12778,-0.39187 v -1.56323 h -0.27687 v -0.22149 q 0.0341,-0.0128 0.12353,-0.0426 0.0894,-0.0341 0.1363,-0.0554 0.0724,-0.0554 0.12353,-0.19168 0.0383,-0.0894 0.14056,-0.44299 h 0.34076 l 0.017,0.62615 h 0.6517 v 0.32798 h -0.64744 v 1.19692 q 0,0.23853 0.0128,0.3365 0.0128,0.098 0.0554,0.12778 0.0426,0.0256 0.14908,0.0256 0.10649,0 0.22149,-0.0213 0.11501,-0.0256 0.19168,-0.0596 l 0.0809,0.23853 q -0.11926,0.0894 -0.34928,0.16186 -0.23001,0.0724 -0.44724,0.0724 z"
         id="path1010"
         style="font-style:normal;font-variant:normal;font-weight:bold;font-stretch:normal;font-family:Merriweather;-inkscape-font-specification:'Merriweather Bold';stroke-width:0.219588;fill:#ffffff;fill-opacity:1"
         d="m 167.61434,131.49281 c -0.17801,0.008 -0.31129,-0.0268 -0.39997,-0.1051 -0.0887,-0.0782 -0.1373,-0.20668 -0.14578,-0.38533 l -0.0741,-1.56113 c -0.0925,0.004 -0.18503,0.009 -0.27754,0.0133 l -0.0107,-0.22118 c 0.0224,-0.01 0.063,-0.0258 0.12188,-0.0485 0.0587,-0.0256 0.10341,-0.0462 0.13412,-0.0619 0.0467,-0.0392 0.085,-0.10495 0.11496,-0.19729 0.0229,-0.0608 0.0629,-0.21034 0.12054,-0.44903 0.11425,-0.005 0.2285,-0.0106 0.34276,-0.0157 0.0152,0.20819 0.0303,0.41639 0.0454,0.62459 0.21803,-0.01 0.43606,-0.0195 0.6541,-0.0289 l 0.0141,0.3276 c -0.21637,0.009 -0.43272,0.0188 -0.64907,0.0286 l 0.0542,1.19543 c 0.007,0.15881 0.0165,0.27066 0.028,0.3355 0.0115,0.0649 0.0318,0.10657 0.061,0.12513 0.0291,0.0158 0.079,0.0221 0.14971,0.0189 0.0708,-0.003 0.14401,-0.0135 0.2198,-0.031 0.0757,-0.0204 0.13849,-0.043 0.18847,-0.0678 0.0303,0.0783 0.0606,0.15652 0.0909,0.23479 -0.0767,0.0629 -0.19025,0.1218 -0.34078,0.17677 -0.15052,0.0549 -0.29777,0.0857 -0.44187,0.0923 0,-1e-5 1e-5,-2e-5 1e-5,-3e-5 z" />
      <path
         inkscape:original-d="m 169.19617,129.10818 q -0.15334,0 -0.24279,-0.0894 -0.0894,-0.0894 -0.0894,-0.23002 0,-0.16186 0.10223,-0.26834 0.10222,-0.10649 0.2726,-0.10649 0.17038,0 0.25983,0.0937 0.0894,0.0894 0.0894,0.22575 0,0.17038 -0.10223,0.27261 -0.10222,0.10222 -0.28538,0.10222 z m -0.22575,0.79227 -0.30243,-0.0809 v -0.28539 l 0.77949,-0.0937 h 0.009 l 0.11926,0.0852 v 2.04882 l 0.28539,0.0341 v 0.25556 h -1.1884 v -0.25556 l 0.29817,-0.0383 z"
         id="path1012"
         style="font-style:normal;font-variant:normal;font-weight:bold;font-stretch:normal;font-family:Merriweather;-inkscape-font-specification:'Merriweather Bold';stroke-width:0.219588;fill:#ffffff;fill-opacity:1"
         d="m 169.02487,128.63616 c -0.10275,0.004 -0.1853,-0.0223 -0.2477,-0.0794 -0.0624,-0.0571 -0.0955,-0.13242 -0.0994,-0.22607 -0.004,-0.10779 0.0261,-0.19856 0.0919,-0.27229 0.0657,-0.0737 0.15585,-0.11292 0.2703,-0.1175 0.11445,-0.005 0.20296,0.0232 0.26547,0.0832 0.0624,0.0572 0.0953,0.13121 0.0988,0.22202 0.004,0.11348 -0.0264,0.20559 -0.0922,0.27635 -0.0659,0.0708 -0.16012,0.10857 -0.28286,0.1135 -0.001,5e-5 -0.003,9e-5 -0.004,1.4e-4 z m -0.19448,0.80063 c -0.10215,-0.0228 -0.20433,-0.0455 -0.30653,-0.0682 l -0.012,-0.28508 c 0.25946,-0.0422 0.51901,-0.084 0.77866,-0.12542 0.003,-1.2e-4 0.006,-2.4e-4 0.009,-3.6e-4 0.041,0.0268 0.082,0.0536 0.12305,0.0804 l 0.0795,2.04679 c 0.0952,0.008 0.19048,0.0154 0.28571,0.0232 l 0.01,0.25532 c -0.3944,0.0149 -0.78876,0.0307 -1.18307,0.0473 l -0.0107,-0.25528 c 0.0985,-0.0169 0.19699,-0.0338 0.29551,-0.0506 -0.0229,-0.55601 -0.0459,-1.11201 -0.0688,-1.66802 z" />
      <path
         inkscape:original-d="m 170.88572,131.90241 q -0.26835,0 -0.39613,-0.12353 -0.12779,-0.12352 -0.12779,-0.39187 v -1.56323 h -0.27686 v -0.22149 q 0.0341,-0.0128 0.12352,-0.0426 0.0894,-0.0341 0.13631,-0.0554 0.0724,-0.0554 0.12352,-0.19168 0.0383,-0.0894 0.14056,-0.44299 h 0.34076 l 0.017,0.62615 h 0.6517 v 0.32798 h -0.64744 v 1.19692 q 0,0.23853 0.0128,0.3365 0.0128,0.098 0.0554,0.12778 0.0426,0.0256 0.14908,0.0256 0.10649,0 0.2215,-0.0213 0.115,-0.0256 0.19168,-0.0596 l 0.0809,0.23853 q -0.11927,0.0894 -0.34928,0.16186 -0.23001,0.0724 -0.44725,0.0724 z"
         id="path1014"
         style="font-style:normal;font-variant:normal;font-weight:bold;font-stretch:normal;font-family:Merriweather;-inkscape-font-specification:'Merriweather Bold';stroke-width:0.219588;fill:#ffffff;fill-opacity:1"
         d="m 170.81903,131.36485 c -0.17812,0.006 -0.31101,-0.0304 -0.3988,-0.10963 -0.0878,-0.0792 -0.13497,-0.20821 -0.14142,-0.38695 l -0.0564,-1.56184 c -0.0925,0.003 -0.18508,0.007 -0.27762,0.0102 l -0.008,-0.22129 c 0.0225,-0.009 0.0633,-0.0251 0.1224,-0.0471 0.059,-0.0249 0.10392,-0.045 0.13481,-0.0603 0.0471,-0.0387 0.0862,-0.10398 0.11715,-0.19598 0.0236,-0.0605 0.0653,-0.2096 0.12559,-0.44762 0.11428,-0.004 0.22856,-0.008 0.34284,-0.0119 0.0128,0.20835 0.0256,0.4167 0.0384,0.62506 0.21809,-0.007 0.43619,-0.0146 0.65429,-0.0215 l 0.0104,0.32774 c -0.21643,0.007 -0.43286,0.014 -0.64929,0.0214 l 0.0407,1.19596 c 0.005,0.15888 0.0135,0.27083 0.0242,0.33579 0.0107,0.065 0.0306,0.10693 0.0596,0.12581 0.0289,0.0161 0.0787,0.023 0.1495,0.0206 0.0708,-0.002 0.14417,-0.0119 0.22017,-0.0285 0.0759,-0.0195 0.13897,-0.0414 0.18924,-0.0657 0.0294,0.0786 0.0588,0.15719 0.0882,0.2358 -0.0774,0.0621 -0.19163,0.11966 -0.34278,0.17293 -0.15114,0.0532 -0.29876,0.0823 -0.44295,0.0873 0,-1e-5 1e-5,-2e-5 1e-5,-3e-5 z" />
      <path
         inkscape:original-d="m 172.41574,129.10818 q -0.15334,0 -0.24279,-0.0894 -0.0894,-0.0894 -0.0894,-0.23002 0,-0.16186 0.10223,-0.26834 0.10223,-0.10649 0.27261,-0.10649 0.17038,0 0.25983,0.0937 0.0894,0.0894 0.0894,0.22575 0,0.17038 -0.10223,0.27261 -0.10223,0.10222 -0.28539,0.10222 z m -0.22575,0.79227 -0.30242,-0.0809 v -0.28539 l 0.77948,-0.0937 h 0.009 l 0.11927,0.0852 v 2.04882 l 0.28538,0.0341 v 0.25556 h -1.18839 v -0.25556 l 0.29816,-0.0383 z"
         id="path1016"
         style="font-style:normal;font-variant:normal;font-weight:bold;font-stretch:normal;font-family:Merriweather;-inkscape-font-specification:'Merriweather Bold';stroke-width:0.219588;fill:#ffffff;fill-opacity:1"
         d="m 172.26141,128.52415 c -0.10277,0.003 -0.18501,-0.0244 -0.24676,-0.0821 -0.0617,-0.0578 -0.094,-0.13347 -0.0968,-0.22716 -0.003,-0.10783 0.0283,-0.19826 0.0949,-0.27125 0.0665,-0.073 0.15707,-0.11119 0.27154,-0.1145 0.11446,-0.003 0.20264,0.0254 0.26446,0.0862 0.0617,0.0579 0.0938,0.13225 0.0963,0.22309 0.003,0.11352 -0.0286,0.20529 -0.0953,0.27532 -0.0666,0.07 -0.16129,0.1068 -0.28405,0.11037 -0.001,3e-5 -0.003,6e-5 -0.004,9e-5 z m -0.20333,0.79843 c -0.10188,-0.0239 -0.20378,-0.0478 -0.30572,-0.0716 l -0.009,-0.28519 c 0.25987,-0.0393 0.51984,-0.0782 0.77989,-0.11678 0.003,-8e-5 0.006,-1.7e-4 0.009,-2.5e-4 0.0407,0.0273 0.0814,0.0545 0.12214,0.0818 l 0.0569,2.04759 c 0.0952,0.009 0.19032,0.0175 0.28547,0.0263 l 0.007,0.25541 c -0.3946,0.0106 -0.78917,0.022 -1.1837,0.0341 l -0.008,-0.25538 c 0.0987,-0.0158 0.19738,-0.0316 0.29608,-0.0473 -0.0168,-0.55623 -0.0335,-1.11246 -0.0503,-1.6687 z" />
      <path
         inkscape:original-d="m 173.3897,130.6842 q 0,-0.4004 0.1576,-0.68152 0.16186,-0.28113 0.43021,-0.42169 0.26835,-0.14482 0.58355,-0.14482 0.5367,0 0.82634,0.33224 0.29391,0.32798 0.29391,0.89449 0,0.40465 -0.16186,0.69004 -0.1576,0.28112 -0.42595,0.42169 -0.26409,0.1363 -0.58355,0.1363 -0.53244,0 -0.82634,-0.32798 -0.29391,-0.33224 -0.29391,-0.89875 z m 1.15432,0.94986 q 0.48133,0 0.48133,-0.92857 0,-0.48558 -0.11501,-0.73689 -0.11501,-0.25557 -0.37483,-0.25557 -0.49411,0 -0.49411,0.92857 0,0.48558 0.11927,0.74115 0.12353,0.25131 0.38335,0.25131 z"
         id="path1018"
         style="font-style:normal;font-variant:normal;font-weight:bold;font-stretch:normal;font-family:Merriweather;-inkscape-font-specification:'Merriweather Bold';stroke-width:0.219588;fill:#ffffff;fill-opacity:1"
         d="m 173.28126,130.07244 c -0.007,-0.2668 0.0398,-0.49519 0.14041,-0.68519 0.10344,-0.19006 0.24385,-0.33413 0.42122,-0.43208 0.17729,-0.10078 0.37159,-0.15353 0.58264,-0.15816 0.3594,-0.008 0.63838,0.0974 0.83634,0.31507 0.20082,0.21484 0.3043,0.5111 0.31117,0.88867 0.005,0.26966 -0.0449,0.5006 -0.149,0.69279 -0.10136,0.18931 -0.24024,0.33253 -0.41666,0.42979 -0.17365,0.0944 -0.36644,0.14382 -0.5786,0.1485 -0.35358,0.008 -0.63046,-0.0948 -0.83128,-0.30854 -0.20084,-0.21649 -0.30651,-0.5134 -0.31624,-0.89085 z m 1.17538,0.92189 c 0.31972,-0.007 0.47366,-0.31948 0.46106,-0.93835 -0.007,-0.32363 -0.0499,-0.56833 -0.13032,-0.73424 -0.0804,-0.16871 -0.2076,-0.25125 -0.38143,-0.24742 -0.3308,0.007 -0.4885,0.32075 -0.47389,0.93943 0.008,0.32354 0.0532,0.56959 0.13652,0.73801 0.0861,0.16556 0.21537,0.24636 0.38806,0.24257 z" />
      <path
         inkscape:original-d="m 177.98955,131.90667 q -0.14056,0 -0.20445,-0.0596 -0.0639,-0.0596 -0.0639,-0.1789 v -0.11501 q -0.115,0.14057 -0.32372,0.25131 -0.20871,0.10649 -0.41743,0.10649 -0.40891,0 -0.58355,-0.20872 -0.17464,-0.21297 -0.17464,-0.69855 v -1.20118 l -0.21297,-0.0596 v -0.24279 l 0.72411,-0.0554 h 0.004 l 0.0852,0.0596 v 1.49934 q 0,0.31094 0.0767,0.43447 0.0767,0.12352 0.28539,0.12352 0.25131,0 0.46854,-0.19594 v -1.56323 l -0.28538,-0.0639 v -0.23853 l 0.77096,-0.0554 h 0.009 l 0.10223,0.0596 v 2.09567 h 0.23853 l -0.004,0.24279 q -0.017,0.004 -0.1576,0.0341 -0.14056,0.0298 -0.3365,0.0298 z"
         id="path1020"
         style="font-style:normal;font-variant:normal;font-weight:bold;font-stretch:normal;font-family:Merriweather;-inkscape-font-specification:'Merriweather Bold';stroke-width:0.219588;fill:#ffffff;fill-opacity:1"
         d="m 177.89583,131.21087 c -0.0934,0.001 -0.16153,-0.0181 -0.20444,-0.0573 -0.0429,-0.0392 -0.0649,-0.0986 -0.0658,-0.17813 l -0.001,-0.11499 c -0.0754,0.0946 -0.18202,0.17961 -0.3198,0.25517 -0.1378,0.0727 -0.27597,0.11007 -0.41462,0.112 -0.27164,0.004 -0.46649,-0.0627 -0.58481,-0.19998 -0.11831,-0.14007 -0.18029,-0.37193 -0.18562,-0.69554 l -0.0197,-1.20082 c -0.0716,-0.0187 -0.14311,-0.0374 -0.21468,-0.056 l -0.004,-0.24271 c 0.24208,-0.0226 0.48419,-0.045 0.72636,-0.067 0.001,-2e-5 0.003,-4e-5 0.004,-6e-5 0.0288,0.0194 0.0576,0.0389 0.0864,0.0583 l 0.0217,1.49896 c 0.003,0.20723 0.0306,0.35167 0.0828,0.43326 0.0522,0.0816 0.14768,0.12142 0.28647,0.11957 0.16714,-0.002 0.3221,-0.0695 0.46513,-0.20178 l -0.0185,-1.56292 c -0.0957,-0.0202 -0.1914,-0.0403 -0.28713,-0.0604 l -0.003,-0.23848 c 0.25785,-0.0218 0.51574,-0.0432 0.77368,-0.0643 0.003,-3e-5 0.006,-6e-5 0.009,-9e-5 0.0344,0.0195 0.0689,0.039 0.10328,0.0585 l 0.0208,2.09533 c 0.0793,-7.9e-4 0.15864,-0.002 0.23797,-0.002 -5.9e-4,0.0809 -0.001,0.16187 -0.002,0.2428 -0.0115,0.003 -0.0633,0.0146 -0.15678,0.0356 -0.0932,0.0208 -0.20489,0.0318 -0.33507,0.0332 -1.8e-4,2e-5 -3.5e-4,4e-5 -5.2e-4,7e-5 z" />
      <path
         inkscape:original-d="m 179.26174,131.5148 q 0.0341,0.0511 0.15334,0.098 0.12353,0.0426 0.24705,0.0426 0.2002,0 0.29817,-0.0809 0.10223,-0.0852 0.10223,-0.22149 0,-0.14057 -0.12353,-0.22576 -0.12352,-0.0894 -0.41743,-0.21723 l -0.11926,-0.0511 q -0.29391,-0.12353 -0.43873,-0.29817 -0.14483,-0.17464 -0.14483,-0.45151 0,-0.19167 0.11501,-0.34075 0.11501,-0.15335 0.32372,-0.23854 0.20872,-0.0852 0.48132,-0.0852 0.2002,0 0.34076,0.0256 0.14483,0.0256 0.30243,0.0682 0.0852,0.0298 0.12778,0.0341 v 0.55799 h -0.3365 l -0.098,-0.32372 q -0.0256,-0.0426 -0.115,-0.0767 -0.0894,-0.0341 -0.20446,-0.0341 -0.17464,0 -0.28112,0.0767 -0.10223,0.0724 -0.10223,0.20445 0,0.11927 0.0724,0.2002 0.0724,0.0767 0.1576,0.11926 0.0852,0.0426 0.3152,0.14057 0.23002,0.098 0.3791,0.18741 0.15334,0.0894 0.25131,0.23428 0.10223,0.14056 0.10223,0.34501 0,0.31521 -0.24705,0.51114 -0.24706,0.19594 -0.71134,0.19594 -0.21723,0 -0.39187,-0.0383 -0.17038,-0.0383 -0.39614,-0.10222 l -0.0937,-0.0298 v -0.56225 h 0.35353 z"
         id="path1022"
         style="font-style:normal;font-variant:normal;font-weight:bold;font-stretch:normal;font-family:Merriweather;-inkscape-font-specification:'Merriweather Bold';stroke-width:0.219588;fill:#ffffff;fill-opacity:1"
         d="m 179.16115,130.80797 c 0.0229,0.0339 0.0741,0.0662 0.15364,0.097 0.0824,0.0279 0.16457,0.0416 0.24672,0.0412 0.13314,-7.3e-4 0.23215,-0.0282 0.29707,-0.0824 0.0678,-0.0571 0.10146,-0.13106 0.10107,-0.22192 -4e-4,-0.0937 -0.0418,-0.16878 -0.1244,-0.22519 -0.0825,-0.0592 -0.222,-0.13097 -0.41839,-0.215 -0.0399,-0.0168 -0.0797,-0.0336 -0.11957,-0.0504 -0.19647,-0.0811 -0.3435,-0.17939 -0.44103,-0.29506 -0.0975,-0.11566 -0.14714,-0.26575 -0.14865,-0.4503 -0.001,-0.12776 0.0365,-0.24165 0.11263,-0.34163 0.0761,-0.10282 0.18388,-0.18314 0.32322,-0.24088 0.13934,-0.0577 0.30034,-0.0872 0.48288,-0.0881 0.13406,-7.1e-4 0.2482,0.007 0.34238,0.024 0.097,0.0166 0.19838,0.039 0.30398,0.067 0.0571,0.0197 0.0999,0.0309 0.12841,0.0337 l 0.002,0.55796 c -0.11243,3.3e-4 -0.22486,7.1e-4 -0.33729,0.001 -0.0332,-0.10777 -0.0664,-0.21553 -0.0996,-0.32329 -0.0172,-0.0283 -0.0558,-0.0537 -0.11574,-0.0762 -0.0599,-0.0225 -0.12837,-0.0335 -0.20536,-0.0331 -0.11686,6.1e-4 -0.21077,0.0267 -0.28169,0.0783 -0.0681,0.0487 -0.10183,0.11705 -0.10126,0.20508 5e-4,0.0795 0.0251,0.14607 0.0738,0.19972 0.0487,0.0508 0.10155,0.0903 0.15862,0.1183 0.0572,0.0281 0.16247,0.0743 0.31643,0.13892 0.15385,0.0646 0.28061,0.12658 0.38028,0.18582 0.10252,0.0592 0.18657,0.13708 0.25216,0.23348 0.0684,0.0935 0.10275,0.20843 0.10308,0.34472 5.2e-4,0.21013 -0.0813,0.38068 -0.24516,0.5118 -0.16389,0.13116 -0.39993,0.19731 -0.70844,0.19897 -0.14435,7.7e-4 -0.27462,-0.0112 -0.39085,-0.036 -0.11342,-0.0248 -0.24526,-0.0579 -0.39569,-0.0993 -0.0312,-0.01 -0.0625,-0.0194 -0.0937,-0.0291 l -0.005,-0.56217 c 0.11773,-9.6e-4 0.23545,-0.002 0.35318,-0.003 0.0334,0.11185 0.0668,0.22371 0.10019,0.33558 z" />
      <path
         inkscape:original-d="m 183.45674,131.89815 q -0.64744,0 -0.96264,-0.32372 -0.31521,-0.32372 -0.31521,-1.01802 v -1.53767 l -0.28112,-0.0554 v -0.26409 h 1.28636 v 0.26409 l -0.36205,0.0596 v 1.58879 q 0,1.01376 0.71985,1.01376 0.35354,0 0.52392,-0.25983 0.17038,-0.26408 0.17038,-0.73689 v -1.60583 l -0.36632,-0.0596 v -0.26409 h 1.06487 v 0.26409 l -0.28964,0.0554 v 1.57601 q 0,0.66448 -0.32372,0.98394 -0.31946,0.31946 -0.86468,0.31946 z"
         id="path1024"
         style="font-style:normal;font-variant:normal;font-weight:bold;font-stretch:normal;font-family:Merriweather;-inkscape-font-specification:'Merriweather Bold';stroke-width:0.219588;fill:#ffffff;fill-opacity:1"
         d="m 183.34589,131.19015 c -0.43033,-0.003 -0.74972,-0.11167 -0.95877,-0.32818 -0.20898,-0.21641 -0.31335,-0.55603 -0.31232,-1.01885 l 0.003,-1.53765 c -0.0942,-0.0187 -0.18841,-0.0373 -0.28265,-0.0559 l 3.6e-4,-0.26409 c 0.43166,5.7e-4 0.86329,0.002 1.29491,0.004 l -0.001,0.26409 c -0.12149,0.0192 -0.24296,0.0385 -0.36441,0.0579 l -0.007,1.58878 c -0.003,0.67596 0.23559,1.01451 0.71411,1.01753 0.23518,0.001 0.41006,-0.0838 0.52486,-0.25612 0.1148,-0.17513 0.17368,-0.42032 0.17631,-0.73551 l 0.0134,-1.60584 c -0.12262,-0.0209 -0.24527,-0.0417 -0.36794,-0.0625 l 0.002,-0.26409 c 0.35729,0.003 0.71456,0.006 1.07182,0.009 l -0.003,0.26409 c -0.0973,0.0175 -0.19457,0.035 -0.29183,0.0525 l -0.0151,1.57601 c -0.004,0.44297 -0.11532,0.76995 -0.3325,0.98101 -0.2144,0.21115 -0.50252,0.31532 -0.86492,0.31312 z" />
      <path
         inkscape:original-d="m 185.40839,129.90045 -0.27261,-0.0767 v -0.29391 l 0.70707,-0.0894 h 0.0128 l 0.10649,0.0852 v 0.16612 l -0.004,0.10223 q 0.14908,-0.14056 0.38761,-0.24279 0.23854,-0.10223 0.48133,-0.10223 0.25983,0 0.40465,0.098 0.14908,0.0937 0.21297,0.29817 0.0639,0.20445 0.0639,0.55373 v 1.17562 l 0.25982,0.0341 v 0.25556 h -1.09894 v -0.25556 l 0.23001,-0.0341 v -1.17562 q 0,-0.22149 -0.0298,-0.34502 -0.0298,-0.12778 -0.11075,-0.18316 -0.0767,-0.0596 -0.22149,-0.0596 -0.24279,0 -0.51966,0.20872 v 1.55045 l 0.25557,0.0383 v 0.25556 h -1.11172 v -0.25556 l 0.24705,-0.0383 z"
         id="path1026"
         style="font-style:normal;font-variant:normal;font-weight:bold;font-stretch:normal;font-family:Merriweather;-inkscape-font-specification:'Merriweather Bold';stroke-width:0.219588;fill:#ffffff;fill-opacity:1"
         d="m 185.31546,129.20987 c -0.0908,-0.0266 -0.18169,-0.0532 -0.27257,-0.0798 l 0.003,-0.29392 c 0.23697,-0.0272 0.474,-0.0542 0.71109,-0.0809 0.004,5e-5 0.009,1.1e-4 0.0129,1.6e-4 0.0353,0.0289 0.0705,0.0577 0.1058,0.0866 l -0.002,0.16612 c -0.002,0.0341 -0.004,0.0681 -0.005,0.10218 0.10096,-0.0924 0.23175,-0.17154 0.39238,-0.23738 0.16064,-0.0658 0.3223,-0.0975 0.48484,-0.0949 0.17394,0.003 0.30886,0.0377 0.40467,0.10467 0.0987,0.0642 0.16822,0.16479 0.20854,0.30185 0.0403,0.13706 0.0584,0.32199 0.0542,0.55485 l -0.0209,1.17557 c 0.0862,0.0129 0.17248,0.0258 0.2587,0.0388 l -0.005,0.25555 c -0.36533,-0.007 -0.73066,-0.013 -1.09599,-0.0186 l 0.004,-0.25556 c 0.0767,-0.0102 0.1534,-0.0203 0.23011,-0.0305 l 0.0189,-1.17559 c 0.002,-0.14766 -0.006,-0.26282 -0.0243,-0.34549 -0.0186,-0.0855 -0.0546,-0.14714 -0.10816,-0.18491 -0.0507,-0.0405 -0.12442,-0.0616 -0.22125,-0.063 -0.16238,-0.002 -0.3372,0.0646 -0.52414,0.20128 l -0.021,1.55044 c 0.0849,0.0139 0.1697,0.0279 0.25454,0.0419 l -0.004,0.25555 c -0.36956,-0.005 -0.73913,-0.01 -1.10868,-0.0141 l 0.003,-0.25556 c 0.0823,-0.0119 0.16467,-0.0237 0.24701,-0.0355 0.006,-0.55661 0.0129,-1.11321 0.0194,-1.66982 z" />
      <path
         inkscape:original-d="m 188.58017,129.10818 q -0.15334,0 -0.24279,-0.0894 -0.0894,-0.0894 -0.0894,-0.23002 0,-0.16186 0.10223,-0.26834 0.10223,-0.10649 0.27261,-0.10649 0.17038,0 0.25983,0.0937 0.0894,0.0894 0.0894,0.22575 0,0.17038 -0.10223,0.27261 -0.10223,0.10222 -0.28539,0.10222 z m -0.22575,0.79227 -0.30242,-0.0809 v -0.28539 l 0.77948,-0.0937 h 0.009 l 0.11927,0.0852 v 2.04882 l 0.28539,0.0341 v 0.25556 h -1.1884 v -0.25556 l 0.29816,-0.0383 z"
         id="path1028"
         style="font-style:normal;font-variant:normal;font-weight:bold;font-stretch:normal;font-family:Merriweather;-inkscape-font-specification:'Merriweather Bold';stroke-width:0.219588;fill:#ffffff;fill-opacity:1"
         d="m 188.51288,128.46953 c -0.10274,-0.002 -0.18346,-0.0336 -0.24221,-0.0944 -0.0587,-0.0608 -0.0872,-0.13806 -0.0853,-0.2318 0.002,-0.1079 0.0382,-0.19667 0.10825,-0.26627 0.07,-0.0696 0.16227,-0.10324 0.27665,-0.10085 0.11437,0.002 0.20092,0.0355 0.25959,0.0992 0.0587,0.0609 0.0871,0.1368 0.0851,0.22769 -0.002,0.11357 -0.0388,0.20369 -0.10874,0.27035 -0.07,0.0667 -0.16631,0.0987 -0.28902,0.0961 -0.001,-4e-5 -0.003,-8e-5 -0.004,-1.2e-4 z m -0.24286,0.78758 c -0.10055,-0.029 -0.20112,-0.058 -0.30171,-0.0869 l 0.006,-0.28538 c 0.26143,-0.0262 0.52293,-0.0521 0.78448,-0.0777 0.003,6e-5 0.006,1.3e-4 0.009,1.9e-4 0.0393,0.0293 0.0786,0.0585 0.11789,0.0878 l -0.0448,2.04863 c 0.0947,0.0134 0.1894,0.0269 0.28408,0.0404 l -0.006,0.25554 c -0.39508,-0.009 -0.79015,-0.0173 -1.18523,-0.0249 l 0.005,-0.25554 c 0.0994,-0.0109 0.19888,-0.0216 0.29834,-0.0324 0.0111,-0.55657 0.0221,-1.11315 0.0332,-1.66972 z" />
      <path
         inkscape:original-d="m 189.3369,129.4958 h 1.12451 v 0.24705 l -0.28113,0.0554 0.38761,1.15858 0.13631,0.45151 0.115,-0.43873 0.3791,-1.17136 -0.26835,-0.0554 v -0.24705 h 0.93709 v 0.24705 l -0.2215,0.0554 -0.79226,2.09993 h -0.4941 l -0.84764,-2.09993 -0.17464,-0.0554 z"
         id="path1030"
         style="font-style:normal;font-variant:normal;font-weight:bold;font-stretch:normal;font-family:Merriweather;-inkscape-font-specification:'Merriweather Bold';stroke-width:0.219588;fill:#ffffff;fill-opacity:1"
         d="m 189.26449,128.8737 c 0.37628,0.009 0.75255,0.0178 1.12879,0.0276 l -0.006,0.24701 c -0.0945,0.016 -0.18894,0.0321 -0.28339,0.0482 0.11985,0.3894 0.23929,0.77886 0.35832,1.16839 0.0415,0.15167 0.0829,0.30334 0.12425,0.45503 0.0422,-0.1452 0.0844,-0.29039 0.12666,-0.43557 0.13685,-0.38698 0.2741,-0.77388 0.41175,-1.16071 -0.0892,-0.021 -0.1784,-0.0419 -0.26761,-0.0628 l 0.007,-0.247 c 0.31352,0.009 0.62702,0.0175 0.94051,0.0268 l -0.007,0.24699 c -0.0746,0.0163 -0.14919,0.0325 -0.22377,0.0488 -0.28524,0.69209 -0.56902,1.3845 -0.85129,2.07722 -0.16425,-0.004 -0.32849,-0.009 -0.49274,-0.013 -0.26377,-0.70711 -0.52916,-1.41393 -0.7962,-2.12045 -0.058,-0.0198 -0.11592,-0.0396 -0.1739,-0.0594 z" />
      <path
         inkscape:original-d="m 193.05677,131.91093 q -0.56226,0 -0.83912,-0.32798 -0.27261,-0.33224 -0.27261,-0.90301 0,-0.38336 0.14056,-0.66448 0.14483,-0.28113 0.40465,-0.43021 0.25983,-0.14908 0.60059,-0.14908 0.42595,0 0.65596,0.22575 0.23002,0.22149 0.23854,0.63466 0,0.28113 -0.0341,0.41743 h -1.38433 q 0.017,0.38762 0.18315,0.60485 0.16612,0.21297 0.47281,0.21297 0.16612,0 0.34076,-0.0554 0.17889,-0.0554 0.28112,-0.13204 l 0.10649,0.23427 q -0.11501,0.12352 -0.37484,0.23001 -0.25556,0.10223 -0.51965,0.10223 z m 0.33224,-1.45249 q 0.009,-0.11926 0.009,-0.18316 0,-0.56651 -0.3791,-0.56651 -0.20871,0 -0.32372,0.16612 -0.11501,0.16612 -0.12778,0.58355 z"
         id="path1032"
         style="font-style:normal;font-variant:normal;font-weight:bold;font-stretch:normal;font-family:Merriweather;-inkscape-font-specification:'Merriweather Bold';stroke-width:0.219588;fill:#ffffff;fill-opacity:1"
         d="m 192.91857,131.39229 c -0.37374,-0.0123 -0.64915,-0.13024 -0.82667,-0.35451 -0.17455,-0.22696 -0.25642,-0.53063 -0.24502,-0.91103 0.008,-0.25551 0.0612,-0.47553 0.16078,-0.66006 0.10245,-0.18444 0.24213,-0.32366 0.41904,-0.41756 0.17691,-0.0939 0.37947,-0.13715 0.60747,-0.12963 0.285,0.009 0.50191,0.0922 0.65047,0.24794 0.14869,0.15295 0.22087,0.36723 0.21683,0.64277 -0.007,0.18733 -0.0229,0.32603 -0.0488,0.41605 -0.46153,-0.0163 -0.92309,-0.0317 -1.38468,-0.0463 0.003,0.25868 0.0578,0.46218 0.1638,0.61049 0.10605,0.1455 0.26102,0.22155 0.46509,0.22835 0.11054,0.004 0.22453,-0.0109 0.34201,-0.0439 0.12032,-0.0328 0.2154,-0.0736 0.28524,-0.12228 0.0327,0.0793 0.0654,0.1586 0.0981,0.2379 -0.0794,0.0796 -0.20675,0.15188 -0.38196,0.21693 -0.17226,0.0623 -0.3461,0.0906 -0.52166,0.0848 1e-5,1e-5 1e-5,2e-5 2e-5,3e-5 z m 0.38033,-1.44091 c 0.009,-0.0793 0.0137,-0.1402 0.0152,-0.18279 0.0128,-0.3775 -0.10749,-0.57064 -0.36105,-0.57896 -0.13955,-0.005 -0.24957,0.0473 -0.32998,0.15556 -0.0804,0.10827 -0.12922,0.30135 -0.14654,0.5793 0.27413,0.009 0.54826,0.0176 0.82238,0.0269 z" />
      <path
         inkscape:original-d="m 194.32942,131.61276 0.28113,-0.0341 v -1.67824 l -0.27261,-0.0767 v -0.29391 l 0.66022,-0.0894 h 0.0128 l 0.10649,0.0852 v 0.0937 l -0.0128,0.34502 h 0.0128 q 0.0298,-0.0852 0.14056,-0.20871 0.11075,-0.12779 0.27687,-0.2215 0.17038,-0.098 0.36631,-0.098 0.0937,0 0.16186,0.0256 v 0.63893 q -0.12778,-0.0894 -0.31094,-0.0894 -0.31094,0 -0.54095,0.16612 v 1.39711 l 0.4941,0.0383 v 0.25131 h -1.37582 z"
         id="path1034"
         style="font-style:normal;font-variant:normal;font-weight:bold;font-stretch:normal;font-family:Merriweather;-inkscape-font-specification:'Merriweather Bold';stroke-width:0.219588;fill:#ffffff;fill-opacity:1"
         d="m 194.19834,131.13812 c 0.0939,-0.008 0.18785,-0.0159 0.28179,-0.0238 l 0.0619,-1.67745 c -0.0901,-0.0289 -0.18027,-0.0578 -0.27044,-0.0867 l 0.0106,-0.29377 c 0.22185,-0.0218 0.44375,-0.0434 0.66569,-0.0648 0.004,1.6e-4 0.009,3.3e-4 0.0128,4.9e-4 0.0345,0.0297 0.0691,0.0595 0.10359,0.0892 l -0.004,0.0937 c -0.009,0.11478 -0.0174,0.22956 -0.026,0.34434 0.004,1.7e-4 0.009,3.3e-4 0.0128,4.9e-4 0.0221,-0.056 0.0717,-0.12375 0.14889,-0.20318 0.0773,-0.0823 0.17272,-0.1525 0.28626,-0.21057 0.1165,-0.0608 0.24031,-0.0886 0.37135,-0.0833 0.0627,0.003 0.11645,0.0132 0.16134,0.0322 l -0.0259,0.63853 c -0.0829,-0.063 -0.18553,-0.097 -0.30786,-0.10188 -0.20767,-0.008 -0.39051,0.04 -0.54833,0.14481 l -0.0537,1.39637 c 0.16386,0.0191 0.32771,0.0383 0.49153,0.0575 l -0.01,0.25117 c -0.4573,-0.0182 -0.91461,-0.0355 -1.37194,-0.0521 0.003,-0.0837 0.006,-0.16748 0.009,-0.25122 z" />
      <path
         inkscape:original-d="m 196.80718,131.5148 q 0.0341,0.0511 0.15334,0.098 0.12353,0.0426 0.24705,0.0426 0.2002,0 0.29817,-0.0809 0.10222,-0.0852 0.10222,-0.22149 0,-0.14057 -0.12352,-0.22576 -0.12353,-0.0894 -0.41743,-0.21723 l -0.11927,-0.0511 q -0.2939,-0.12353 -0.43872,-0.29817 -0.14483,-0.17464 -0.14483,-0.45151 0,-0.19167 0.11501,-0.34075 0.11501,-0.15335 0.32372,-0.23854 0.20872,-0.0852 0.48132,-0.0852 0.2002,0 0.34076,0.0256 0.14483,0.0256 0.30243,0.0682 0.0852,0.0298 0.12778,0.0341 v 0.55799 h -0.3365 l -0.098,-0.32372 q -0.0256,-0.0426 -0.115,-0.0767 -0.0894,-0.0341 -0.20446,-0.0341 -0.17464,0 -0.28112,0.0767 -0.10223,0.0724 -0.10223,0.20445 0,0.11927 0.0724,0.2002 0.0724,0.0767 0.1576,0.11926 0.0852,0.0426 0.3152,0.14057 0.23001,0.098 0.3791,0.18741 0.15334,0.0894 0.25131,0.23428 0.10222,0.14056 0.10222,0.34501 0,0.31521 -0.24705,0.51114 -0.24705,0.19594 -0.71133,0.19594 -0.21723,0 -0.39187,-0.0383 -0.17038,-0.0383 -0.39614,-0.10222 l -0.0937,-0.0298 v -0.56225 h 0.35354 z"
         id="path1036"
         style="font-style:normal;font-variant:normal;font-weight:bold;font-stretch:normal;font-family:Merriweather;-inkscape-font-specification:'Merriweather Bold';stroke-width:0.219588;fill:#ffffff;fill-opacity:1"
         d="m 196.67475,131.13755 c 0.0212,0.035 0.0709,0.0698 0.14883,0.10446 0.0809,0.0319 0.16247,0.0496 0.24462,0.0532 0.13314,0.006 0.23346,-0.0168 0.30101,-0.0678 0.0705,-0.0538 0.10779,-0.12601 0.11183,-0.2168 0.004,-0.0936 -0.0336,-0.17066 -0.11335,-0.23104 -0.0796,-0.0632 -0.21547,-0.14168 -0.40758,-0.23527 -0.039,-0.0187 -0.078,-0.0375 -0.11702,-0.0562 -0.19232,-0.0907 -0.33436,-0.19613 -0.42609,-0.31651 -0.0917,-0.12037 -0.13384,-0.27278 -0.12621,-0.45724 0.005,-0.12769 0.0484,-0.23962 0.12937,-0.33574 0.0811,-0.099 0.19264,-0.17389 0.33459,-0.22472 0.14195,-0.0508 0.30411,-0.0723 0.48639,-0.0643 0.13386,0.006 0.24742,0.0194 0.34063,0.0406 0.0961,0.0214 0.19614,0.0486 0.3002,0.0818 0.0561,0.0224 0.0982,0.0357 0.12657,0.0399 l -0.0254,0.55751 c -0.1123,-0.005 -0.2246,-0.0102 -0.33691,-0.0152 -0.0279,-0.10928 -0.0558,-0.21856 -0.0837,-0.32784 -0.0158,-0.0291 -0.0531,-0.0564 -0.11185,-0.0817 -0.0587,-0.0254 -0.12654,-0.0397 -0.20343,-0.0431 -0.1167,-0.005 -0.21175,0.0164 -0.28509,0.0644 -0.0704,0.0453 -0.10743,0.11194 -0.11119,0.19991 -0.003,0.0795 0.0179,0.14717 0.0639,0.20316 0.0461,0.0532 0.097,0.0952 0.15263,0.12598 0.0557,0.0309 0.15867,0.0822 0.30929,0.15425 0.15053,0.072 0.27415,0.14014 0.37085,0.20417 0.0996,0.0642 0.17975,0.14599 0.24062,0.24547 0.0638,0.0967 0.0926,0.2132 0.0863,0.34939 -0.01,0.20996 -0.0997,0.3764 -0.26983,0.49946 -0.17019,0.12309 -0.40943,0.17772 -0.71799,0.16429 -0.14438,-0.006 -0.27404,-0.0246 -0.38904,-0.0551 -0.11218,-0.0303 -0.24238,-0.0699 -0.39072,-0.11877 -0.0307,-0.0112 -0.0615,-0.0224 -0.0922,-0.0336 l 0.0232,-0.56189 c 0.1177,0.005 0.23541,0.01 0.35311,0.0148 0.0279,0.1134 0.0558,0.2268 0.0836,0.3402 z" />
      <path
         inkscape:original-d="m 199.05419,129.10818 q -0.15334,0 -0.24279,-0.0894 -0.0894,-0.0894 -0.0894,-0.23002 0,-0.16186 0.10223,-0.26834 0.10223,-0.10649 0.27261,-0.10649 0.17038,0 0.25983,0.0937 0.0894,0.0894 0.0894,0.22575 0,0.17038 -0.10223,0.27261 -0.10223,0.10222 -0.28539,0.10222 z m -0.22575,0.79227 -0.30242,-0.0809 v -0.28539 l 0.77948,-0.0937 h 0.009 l 0.11927,0.0852 v 2.04882 l 0.28538,0.0341 v 0.25556 h -1.18839 v -0.25556 l 0.29816,-0.0383 z"
         id="path1038"
         style="font-style:normal;font-variant:normal;font-weight:bold;font-stretch:normal;font-family:Merriweather;-inkscape-font-specification:'Merriweather Bold';stroke-width:0.219588;fill:#ffffff;fill-opacity:1"
         d="m 199.03224,128.83471 c -0.10258,-0.005 -0.18237,-0.0386 -0.23941,-0.10094 -0.057,-0.0624 -0.0833,-0.14039 -0.0789,-0.23405 0.005,-0.10781 0.0435,-0.19556 0.11538,-0.26323 0.0719,-0.0677 0.1649,-0.0988 0.27907,-0.0933 0.11417,0.005 0.19972,0.0409 0.2566,0.10626 0.057,0.0625 0.0832,0.1391 0.0788,0.2299 -0.006,0.11347 -0.0442,0.20257 -0.11593,0.26732 -0.0717,0.0648 -0.16881,0.0942 -0.29134,0.0883 -0.001,-8e-5 -0.003,-1.6e-4 -0.004,-2.4e-4 z m -0.26409,0.7807 c -0.0997,-0.0317 -0.1994,-0.0634 -0.29914,-0.0951 l 0.0133,-0.28513 c 0.26195,-0.019 0.52394,-0.0378 0.78597,-0.0564 0.003,1.4e-4 0.006,2.9e-4 0.009,4.4e-4 0.0385,0.0303 0.077,0.0606 0.11542,0.0909 l -0.10006,2.04671 c 0.0943,0.016 0.18867,0.032 0.28299,0.0481 l -0.0127,0.25529 c -0.39487,-0.0196 -0.78976,-0.0386 -1.18468,-0.057 l 0.0119,-0.25533 c 0.0997,-0.008 0.19949,-0.0162 0.29924,-0.0243 0.0262,-0.55609 0.0524,-1.11218 0.0786,-1.66827 z" />
      <path
         inkscape:original-d="m 200.74375,131.90241 q -0.26835,0 -0.39614,-0.12353 -0.12778,-0.12352 -0.12778,-0.39187 v -1.56323 h -0.27687 v -0.22149 q 0.0341,-0.0128 0.12353,-0.0426 0.0894,-0.0341 0.1363,-0.0554 0.0724,-0.0554 0.12353,-0.19168 0.0383,-0.0894 0.14056,-0.44299 h 0.34076 l 0.017,0.62615 h 0.6517 v 0.32798 h -0.64744 v 1.19692 q 0,0.23853 0.0128,0.3365 0.0128,0.098 0.0554,0.12778 0.0426,0.0256 0.14908,0.0256 0.10649,0 0.22149,-0.0213 0.11501,-0.0256 0.19168,-0.0596 l 0.0809,0.23853 q -0.11926,0.0894 -0.34928,0.16186 -0.23001,0.0724 -0.44724,0.0724 z"
         id="path1040"
         style="font-style:normal;font-variant:normal;font-weight:bold;font-stretch:normal;font-family:Merriweather;-inkscape-font-specification:'Merriweather Bold';stroke-width:0.219588;fill:#ffffff;fill-opacity:1"
         d="m 200.58232,131.71035 c -0.17829,-0.009 -0.30777,-0.0571 -0.38851,-0.14372 -0.0807,-0.0866 -0.1166,-0.21921 -0.10753,-0.39791 l 0.0793,-1.56144 c -0.0924,-0.005 -0.18488,-0.009 -0.27732,-0.014 l 0.0111,-0.22125 c 0.0232,-0.007 0.0652,-0.0195 0.12594,-0.0363 0.0609,-0.0197 0.10734,-0.0358 0.13941,-0.0484 0.0503,-0.0344 0.0948,-0.0962 0.13358,-0.18516 0.0287,-0.0583 0.0831,-0.20327 0.16366,-0.43525 0.11402,0.006 0.22803,0.0118 0.34203,0.0177 -0.005,0.20876 -0.0104,0.41752 -0.0156,0.62627 0.21772,0.0114 0.43543,0.0229 0.65312,0.0346 l -0.0176,0.32755 c -0.21611,-0.0116 -0.43222,-0.0231 -0.64835,-0.0344 l -0.0624,1.19545 c -0.008,0.15882 -0.01,0.27108 -0.005,0.33675 0.005,0.0657 0.0213,0.1092 0.0486,0.13051 0.0274,0.0185 0.0766,0.0297 0.14737,0.0334 0.0708,0.004 0.14484,5.3e-4 0.22207,-0.01 0.0774,-0.013 0.14219,-0.0294 0.1944,-0.0493 0.0226,0.0808 0.0453,0.1617 0.0679,0.24255 -0.0825,0.0553 -0.20143,0.1029 -0.35684,0.14305 -0.1554,0.0401 -0.30523,0.0564 -0.44956,0.0489 1e-5,-1e-5 1e-5,-2e-5 2e-5,-2e-5 z" />
      <path
         inkscape:original-d="m 202.14599,132.92469 q -0.0767,0 -0.16612,-0.0128 -0.0852,-0.0128 -0.12353,-0.0298 v -0.45576 q 0.0298,0.017 0.11927,0.0341 0.0894,0.017 0.16186,0.017 0.21297,0 0.34928,-0.14056 0.14056,-0.14057 0.25982,-0.47281 h -0.23001 l -0.80078,-2.06585 -0.19168,-0.0554 v -0.24705 h 1.17136 v 0.24705 l -0.31094,0.0511 0.37909,1.17988 0.15334,0.50262 0.13205,-0.50262 0.34928,-1.17988 -0.26835,-0.0511 v -0.24705 h 0.92431 v 0.24705 l -0.20872,0.0511 q -0.23427,0.7156 -0.46428,1.38008 -0.23001,0.66448 -0.26835,0.74541 -0.1363,0.3578 -0.25983,0.57077 -0.12352,0.21297 -0.2939,0.32372 -0.17038,0.11075 -0.41317,0.11075 z"
         id="path1042"
         style="font-style:normal;font-variant:normal;font-weight:bold;font-stretch:normal;font-family:Merriweather;-inkscape-font-specification:'Merriweather Bold';stroke-width:0.219588;fill:#ffffff;fill-opacity:1"
         d="m 201.92334,132.80603 c -0.0508,-0.003 -0.10565,-0.0101 -0.16445,-0.0219 -0.056,-0.0116 -0.0964,-0.0238 -0.12119,-0.0365 l 0.0248,-0.45512 c 0.0192,0.0124 0.0581,0.0259 0.11685,0.0405 0.0587,0.0146 0.11207,0.0232 0.16014,0.0258 0.14129,0.008 0.25975,-0.0325 0.35545,-0.12104 0.0985,-0.0883 0.19362,-0.24087 0.28536,-0.45754 -0.0764,-0.004 -0.1528,-0.009 -0.2292,-0.0129 -0.22743,-0.70249 -0.45613,-1.40484 -0.68611,-2.10702 -0.063,-0.0219 -0.12597,-0.0438 -0.18897,-0.0657 l 0.0133,-0.24672 c 0.39127,0.0211 0.78249,0.0427 1.17367,0.0648 l -0.0139,0.24668 c -0.10474,0.0111 -0.20947,0.0223 -0.31419,0.0335 0.10461,0.39977 0.20887,0.79958 0.3128,1.19941 0.0416,0.17018 0.0831,0.34035 0.12451,0.51054 0.0534,-0.16478 0.10691,-0.32955 0.16045,-0.4943 0.13874,-0.38601 0.2778,-0.77195 0.41715,-1.15782 -0.0886,-0.0222 -0.17712,-0.0444 -0.2657,-0.0666 l 0.0142,-0.24665 c 0.30864,0.0178 0.61726,0.0358 0.92584,0.0542 l -0.0147,0.24661 c -0.0707,0.0129 -0.1413,0.0257 -0.21195,0.0386 -0.18447,0.467 -0.36602,0.91719 -0.54472,1.35057 -0.17884,0.43373 -0.28181,0.67602 -0.31055,0.72876 -0.10422,0.23296 -0.20127,0.418 -0.29128,0.5551 -0.09,0.13711 -0.19353,0.23934 -0.31062,0.30673 -0.11709,0.0674 -0.25605,0.0966 -0.41696,0.0877 0,2e-5 0,4e-5 0,5e-5 z" />
    </g>
  </g>
</svg>
