<!-- Generated by IcoMoon.io -->
<svg version="1.1" xmlns="http://www.w3.org/2000/svg" width="1024" height="1024" viewBox="0 0 1024 1024">
<title></title>
<g id="icomoon-ignore">
</g>
<path d="M184.448 693.248c-50.901-38.144-114.475-82.688-184.448-133.547l248.064-95.403 101.76 76.331c-76.331 89.045-127.189 120.832-165.376 152.619zM864.981 426.155c-19.072-50.901-31.787-101.76-50.901-152.661-19.072-57.259-38.144-108.117-69.973-152.661-12.715-19.072-38.144-63.616-69.973-63.616-6.357 0-12.715 6.357-19.072 6.357-19.072 6.357-44.501 44.501-50.901 69.973-19.072 31.787-57.259 82.688-82.688 114.475-6.357 12.715-19.072 25.429-25.429 31.787-19.072 12.715-38.144 31.787-63.616 44.501-6.357 0-12.715 6.357-19.072 6.357-19.072 0-31.787 12.715-44.501 19.072-19.072 19.072-38.144 44.501-57.259 63.616 0 6.357-6.357 12.715-12.715 19.072l95.403 69.973c69.973-82.688 152.661-165.376 209.877-324.352 0 0-19.072 171.733-171.733 356.181-95.403 108.117-171.733 165.376-184.448 178.091 0 0 25.429-6.357 50.901 6.357 50.901 19.072 76.331 89.045 95.403 139.904 12.715 38.144 31.787 69.973 44.501 108.117 50.901-12.715 82.688-31.787 114.475-63.616s63.616-69.973 95.403-101.76c57.259-69.973 127.189-159.019 216.235-114.475 12.715 6.357 31.787 19.072 38.144 25.429 19.072 12.715 31.787 25.429 50.901 44.501 31.787 25.429 44.501 44.501 69.973 57.259-63.616-127.189-108.117-254.421-158.933-387.883z"></path>
</svg>
